<?xml version="1.0" encoding="utf-8"?>
<!-- Generator: Adobe Illustrator 19.2.1, SVG Export Plug-In . SVG Version: 6.00 Build 0)  -->
<svg version="1.1" id="Capa_1" xmlns="http://www.w3.org/2000/svg" xmlns:xlink="http://www.w3.org/1999/xlink" x="0px" y="0px"
	 viewBox="0 0 58 58" style="enable-background:new 0 0 58 58;" xml:space="preserve">
<style type="text/css">
	.st0{fill-rule:evenodd;clip-rule:evenodd;fill:#282B43;}
	.st1{fill-rule:evenodd;clip-rule:evenodd;fill:#FFFFFF;}
</style>
<g>
	<g id="user_x5F_3_1_">
		<g>
			
				<image style="overflow:visible;opacity:0.3;" width="259" height="259" xlink:href="E3BCE299BC36001D.png"  transform="matrix(0.24 0 0 0.24 -2 0)">
			</image>
			<g>
				<path class="st0" d="M29,1C13.5,1,1,13.5,1,29s12.5,28,28,28s28-12.5,28-28S44.5,1,29,1z"/>
			</g>
		</g>
	</g>
	<path id="chat_x5F_icon_3_" class="st1" d="M38.4,18.6H19.6c-0.8,0-1.4,0.8-1.4,1.6v20l2.6-4.1h17.6c0.8,0,1.4-0.8,1.4-1.6V20.2
		C39.8,19.4,39.2,18.6,38.4,18.6z M32.6,33.9H21.1v-3h11.4V33.9z M36.8,29.4H21.1v-3h15.7V29.4z M36.8,24.8H21.1v-3h15.7V24.8z"/>
</g>
</svg>
