<?xml version="1.0" encoding="utf-8"?>
<!-- Generator: Adobe Illustrator 19.2.1, SVG Export Plug-In . SVG Version: 6.00 Build 0)  -->
<svg version="1.1" id="Capa_1" xmlns="http://www.w3.org/2000/svg" xmlns:xlink="http://www.w3.org/1999/xlink" x="0px" y="0px"
	 viewBox="0 0 50 50.1" style="enable-background:new 0 0 50 50.1;" xml:space="preserve">
<style type="text/css">
	.st0{fill-rule:evenodd;clip-rule:evenodd;fill:#B24D41;}
	.st1{fill:#FFFFFF;}
</style>
<g>
	<g id="stop_x5F_button_1_">
		<g>
			
				<image style="overflow:visible;opacity:0.3;" width="227" height="227" xlink:href="9B661FC2C57FA34.png"  transform="matrix(0.24 0 0 0.24 -2.1073 -0.327)">
			</image>
			<g>
				<path class="st0" d="M25,0.5C11.5,0.5,0.5,11.5,0.5,25S11.5,49.5,25,49.5S49.5,38.6,49.5,25S38.6,0.5,25,0.5z"/>
			</g>
		</g>
	</g>
	<g>
		<path class="st1" d="M37.3,35L37.3,35h-3.1c-0.5,0-0.9-0.4-0.9-0.9c0-0.5,0.4-0.9,0.9-0.9l0,0h1.8l-1.1-2.6
			c-0.1-0.3-0.1-0.7,0.2-1l2.4-2.8l-2.7-2.3c-0.3-0.3-0.4-0.7-0.2-1.1l1.3-2.4l-2.8-0.6c-0.4-0.1-0.7-0.4-0.7-0.8l-0.4-3.1l-2.6,1.7
			c-0.4,0.3-0.9,0.2-1.2-0.2l-2.3-2.5L24,17.9c-0.2,0.3-0.7,0.5-1.1,0.3l-2.8-1.1l-0.6,1.3c-0.2,0.4-0.7,0.7-1.2,0.4
			c-0.4-0.2-0.7-0.7-0.5-1.2l0.9-2.2c0.2-0.4,0.7-0.7,1.2-0.5l2.9,1.1l2-2.9c0.2-0.2,0.4-0.4,0.7-0.4s0.6,0.1,0.7,0.3l2.5,2.8
			l3.1-2.1c0.3-0.2,0.6-0.2,0.9-0.1c0.3,0.1,0.5,0.4,0.6,0.7l0.6,4l3.4,0.7c0.3,0.1,0.5,0.2,0.6,0.5c0.1,0.3,0.1,0.6,0,0.8l-1.5,2.9
			l2.8,2.5c0.4,0.3,0.4,0.9,0.1,1.3l-2.6,3l1.4,3.4c0.1,0.3,0.1,0.6-0.1,0.8C37.8,34.8,37.5,35,37.3,35z"/>
		<path class="st1" d="M16.1,27.8c0.6-1.2,1.3-1.3,1.8-2c-0.1,0-0.3,0-0.4,0c-2.1-0.1-3.1-0.5-3.3-0.6c-0.3-0.2-0.4-0.6-0.3-1
			l0.8-1.6c0.1-0.2,0.3-0.4,0.6-0.4h5l0,0h0.2l0,0h0.1c0.5,0,0.9-0.4,0.9-1c0-0.5-0.4-0.9-0.9-0.9h-0.2h-0.2h-6
			c-0.2,0-0.5,0.1-0.6,0.3l-1.5,2.6c-0.7,0.3-1.6,1-1.6,2.2c0,0,0,2.2,0,2.7c0,1.5,0.9,1.2,0.9,2.2c0,0.4,0.3,0.7,0.7,0.7H14h0.7
			C16.2,31.3,15.5,29.4,16.1,27.8z M13.3,28.3c-0.6,0-1.1-0.5-1.1-1.1c0-0.6,0.5-1.1,1.1-1.1c0.6,0,1.1,0.5,1.1,1.1
			S13.9,28.3,13.3,28.3z"/>
		<path class="st1" d="M18.9,27.2l1.5-2.6c0.1-0.2,0.3-0.3,0.6-0.3h7c0.2,0,0.5,0.1,0.6,0.3l1.5,2.6c0.7,0.3,1.7,1,1.7,2.5v2.6
			c0,0.7-0.4,1.2-0.9,1.5v0.6c0,0.4-0.3,0.7-0.7,0.7h-1.2c-0.2,0-0.4-0.1-0.6-0.3c-0.2-0.2-0.2-0.4-0.2-0.7v0.1
			c0-0.3-0.1-0.5-0.3-0.7c-0.2-0.2-0.4-0.3-0.7-0.3h-5.3c-0.2,0-0.4,0.1-0.6,0.3c-0.2,0.2-0.3,0.4-0.3,0.6v0.2
			c0,0.2-0.1,0.4-0.2,0.6c-0.2,0.2-0.3,0.2-0.6,0.2h-1.2c-0.4,0-0.7-0.3-0.7-0.7c0,0,0-0.2,0-0.7s-0.9-0.5-0.9-1.5
			c0-0.6,0-2.7,0-2.7C17.3,28.2,18.2,27.5,18.9,27.2z M20.9,29c0.1,0.1,1.2,0.7,3.7,0.7s3.5-0.6,3.6-0.7c0.3-0.2,0.4-0.6,0.2-0.9
			l-0.7-1.5c-0.1-0.2-0.3-0.4-0.6-0.4H22c-0.3,0-0.5,0.2-0.6,0.4L20.6,28C20.5,28.3,20.6,28.7,20.9,29z"/>
	</g>
</g>
</svg>
