<?xml version="1.0" encoding="utf-8"?>
<!-- Generator: Adobe Illustrator 19.2.1, SVG Export Plug-In . SVG Version: 6.00 Build 0)  -->
<svg version="1.1" id="Capa_1" xmlns="http://www.w3.org/2000/svg" xmlns:xlink="http://www.w3.org/1999/xlink" x="0px" y="0px"
	 viewBox="0 0 49.9 58" style="enable-background:new 0 0 49.9 58;" xml:space="preserve">
<style type="text/css">
	.st0{opacity:0.2;fill:#1F1F1F;}
	.st1{fill:#4F73AE;}
	.st2{fill:#648EC6;}
	.st3{fill:#F2F2F2;}
</style>
<path class="st0" d="M27,57.5c21.2-10,22.2-39,22.3-42.7c0-0.2-0.1-0.5-0.4-0.6L27,3.8c-0.2-0.1-0.4-0.1-0.5,0L4.5,14.3
	c-0.2,0.1-0.4,0.3-0.4,0.6c0,3.7,1,32.8,22.3,42.7C26.6,57.6,26.8,57.6,27,57.5z"/>
<path class="st1" d="M48.1,12.1l0-0.4c0-0.3-0.2-0.6-0.4-0.7L25.8,0.7c-0.7-0.4-1.6-0.4-2.4,0L1.6,11.1c-0.3,0.1-0.4,0.4-0.4,0.7
	l0,0.4c0,0.3-0.2,33.6,22.9,44.2l0.4,0.2c0,0,0.1,0,0.1,0s0.1,0,0.1,0l0.4-0.2C48.3,45.7,48.1,12.4,48.1,12.1z"/>
<path class="st2" d="M25,54.8c20.4-9.6,21.6-37.8,21.6-42c0-0.3-0.2-0.6-0.5-0.8L25,1.9c-0.2-0.1-0.5-0.1-0.7,0L3.1,12
	c-0.3,0.1-0.5,0.4-0.5,0.8c0.1,4.2,1.3,32.4,21.6,42C24.5,54.9,24.8,54.9,25,54.8z"/>
<path class="st3" d="M25.2,30.4c0,0-0.1-0.1-0.1-0.1h-0.4c-0.1,0-0.1,0-0.2,0.1c-0.5,1.1-0.9,1.9-1.4,2.4c-0.3,0.4-0.7,0.6-1,0.8
	c-0.4,0.1-0.9,0.2-1.8,0.2h-2.5c-0.5,0-0.7-0.1-0.7-0.1c-0.1-0.1-0.2-0.2-0.2-0.3c0-0.1-0.1-0.4-0.1-1.4v-5.7h3.1
	c0.6,0,1,0.1,1.3,0.2c0.3,0.2,0.4,0.4,0.6,0.6c0.1,0.2,0.2,0.6,0.3,1.6c0,0.1,0.1,0.2,0.2,0.2h0.4c0.1,0,0.2-0.1,0.2-0.2v-6.2
	c0-0.1-0.1-0.2-0.2-0.2h-0.4c-0.1,0-0.2,0.1-0.2,0.2c0,1-0.2,1.6-0.6,2c-0.2,0.3-0.8,0.4-1.6,0.4h-3.1v-6.6h3.9
	c0.7,0,1.2,0.1,1.5,0.2c0.3,0.2,0.6,0.4,0.7,0.7c0.2,0.3,0.3,1,0.5,1.9c0,0.1,0.1,0.2,0.2,0.2h0.4c0,0,0,0,0,0
	c0.1,0,0.2-0.1,0.2-0.2c0,0,0,0,0-0.1l-0.2-3.8c0-0.1-0.1-0.2-0.2-0.2H12.4c-0.1,0-0.2,0.1-0.2,0.2v0.5c0,0.1,0.1,0.2,0.2,0.2h0.5
	c0.5,0,0.9,0.2,1.2,0.4c0.1,0.1,0.2,0.6,0.2,2v11.5c0,0.8,0,1.4-0.1,1.7c-0.1,0.2-0.2,0.4-0.4,0.5c-0.3,0.2-0.6,0.3-0.9,0.3h-0.5
	c-0.1,0-0.2,0.1-0.2,0.2v0.5c0,0.1,0.1,0.2,0.2,0.2h11.4c0.1,0,0.2-0.1,0.2-0.1l1.3-4.4C25.2,30.5,25.2,30.4,25.2,30.4z"/>
<path class="st3" d="M34,18.4c0.2-0.4,0.6-0.6,1.2-0.6h0.5c0.1,0,0.2-0.1,0.2-0.2v-0.5c0-0.1-0.1-0.2-0.2-0.2h-6.3
	c-0.1,0-0.2,0.1-0.2,0.2v0.5c0,0.1,0.1,0.2,0.2,0.2h0.5c0.3,0,0.6,0.1,0.9,0.3c0.2,0.1,0.3,0.3,0.4,0.5c0.1,0.3,0.1,0.8,0.1,1.7
	v11.4c0,1.3-0.1,1.7-0.2,1.9c-0.2,0.4-0.6,0.6-1.2,0.6h-0.5c-0.1,0-0.2,0.1-0.2,0.2v0.5c0,0.1,0.1,0.2,0.2,0.2h6.3
	c0.1,0,0.2-0.1,0.2-0.2v-0.5c0-0.1-0.1-0.2-0.2-0.2h-0.5c-0.3,0-0.6-0.1-0.9-0.3c-0.2-0.1-0.3-0.3-0.4-0.5c-0.1-0.2-0.1-0.6-0.1-1.7
	V20.3C33.8,19,33.9,18.6,34,18.4z"/>
</svg>
