<?xml version="1.0" encoding="utf-8"?>
<!-- Generator: Adobe Illustrator 19.2.1, SVG Export Plug-In . SVG Version: 6.00 Build 0)  -->
<svg version="1.1" id="Capa_1" xmlns="http://www.w3.org/2000/svg" xmlns:xlink="http://www.w3.org/1999/xlink" x="0px" y="0px"
	 viewBox="0 0 58.8 58.8" style="enable-background:new 0 0 58.8 58.8;" xml:space="preserve">
<style type="text/css">
	.st0{fill-rule:evenodd;clip-rule:evenodd;fill:#282B43;}
	.st1{fill-rule:evenodd;clip-rule:evenodd;fill:#FFFFFF;}
</style>
<g>
	<g id="user_x5F_2_1_">
		<g>
			
				<image style="overflow:visible;opacity:0.3;" width="259" height="259" xlink:href="C38C7C99CCD193DD.png"  transform="matrix(0.24 0 0 0.24 -1.5983 0.4017)">
			</image>
			<g>
				<path class="st0" d="M29.4,1.4c-15.5,0-28,12.5-28,28s12.5,28,28,28s28-12.5,28-28S44.9,1.4,29.4,1.4z"/>
			</g>
		</g>
	</g>
	<path id="call_x5F_icon_3_" class="st1" d="M37.9,33.5c-0.5-0.1-1.4-0.2-2.2-0.3c-0.9-0.2-1.6-0.5-2.2-0.7
		c-0.5-0.2-0.5-0.1-0.9,0.1c-0.3,0.2-1.3,1.2-2.5,2.5c-1.2-0.7-2.4-1.5-3.5-2.5c-1.1-1-1.9-2-2.5-2.8C23.6,29,23,28,23,28
		s2.1-2,2.4-2.6c0.3-0.6,0.2-0.9-0.1-1.7C25,23,24.8,21.5,24.7,21s-0.1-1-0.1-1.2s-0.3-0.6-0.4-0.7C24,19,24,19,23.9,19
		c0,0-1.4,0-2.7,0.1h-2.4c-0.3,0-0.6,0.1-0.9,0.2c-0.2,0.1-0.5,0.5-0.6,0.8c-0.1,0.3-0.1,0.8,0.1,2.1c0.2,1.3,0.8,4,1.9,6.4
		c1.2,2.4,3.2,5.3,6.2,7.5c3,2.2,5.5,3.1,6.3,3.4c0.8,0.3,2.8,0.8,3.6,0.9c0.8,0.1,1.9,0.1,2.3,0.1s0.9-0.2,0.9-0.3
		c0-0.1,0.1-0.6,0.2-0.8c0.1-0.2,0.1-0.2,0.1-0.6V36v-1.5c0-0.1-0.1-0.5-0.3-0.7C38.4,33.6,38.4,33.6,37.9,33.5z"/>
</g>
</svg>
