<?xml version="1.0" encoding="utf-8"?>
<!-- Generator: Adobe Illustrator 19.2.1, SVG Export Plug-In . SVG Version: 6.00 Build 0)  -->
<svg version="1.1" id="Capa_1" xmlns="http://www.w3.org/2000/svg" xmlns:xlink="http://www.w3.org/1999/xlink" x="0px" y="0px"
	 viewBox="0 0 85.1 94.7" style="enable-background:new 0 0 85.1 94.7;" xml:space="preserve">
<style type="text/css">
	.st0{fill:#282B43;}
	.st1{fill-rule:evenodd;clip-rule:evenodd;fill:#FFFFFF;}
</style>
<rect class="st0" width="85.1" height="94.7"/>
<path id="call_x5F_icon_1_" class="st1" d="M54.8,49.9c-0.7-0.2-1.9-0.3-2.9-0.5c-1.2-0.3-2.2-0.6-2.9-0.9c-0.7-0.3-0.7-0.2-1.2,0.2
	c-0.4,0.3-1.7,1.6-3.3,3.3c-1.6-0.9-3.2-1.9-4.6-3.3c-1.4-1.4-2.6-2.7-3.3-3.8c-0.9-1.1-1.6-2.4-1.6-2.4s2.7-2.7,3.2-3.4
	c0.4-0.8,0.3-1.2-0.1-2.3c-0.4-1-0.7-3-0.9-3.6C37,32.6,37,31.9,37,31.6c0-0.3-0.4-0.8-0.6-0.9c-0.1-0.2-0.1-0.2-0.3-0.2
	c0,0-1.9,0-3.6,0.2h-3.2c-0.4,0-0.9,0.1-1.2,0.3c-0.3,0.1-0.7,0.6-0.9,1.1c-0.1,0.4-0.1,1,0.1,2.8c0.3,1.8,1,5.4,2.6,8.5
	c1.6,3.2,4.3,7,8.2,10.1c4,3,7.4,4.2,8.4,4.5c1,0.5,3.8,1.1,4.8,1.2c1,0.2,2.6,0.2,3,0.2c0.4,0,1.2-0.3,1.2-0.5
	c0-0.1,0.1-0.8,0.3-1.1c0.1-0.3,0.1-0.3,0.1-0.7v-3.9v-2c0-0.2-0.1-0.6-0.4-0.9C55.5,50,55.5,50,54.8,49.9z"/>
</svg>
