<?xml version="1.0" encoding="utf-8"?>
<!-- Generator: Adobe Illustrator 19.2.1, SVG Export Plug-In . SVG Version: 6.00 Build 0)  -->
<svg version="1.1" id="Capa_1" xmlns="http://www.w3.org/2000/svg" xmlns:xlink="http://www.w3.org/1999/xlink" x="0px" y="0px"
	 viewBox="0 0 21.3 20.7" style="enable-background:new 0 0 21.3 20.7;" xml:space="preserve">
<style type="text/css">
	.st0{fill:#FFFFFF;}
</style>
<g id="user_x5F_icon_1_">
	<path class="st0" d="M19.3,15.2c-1-0.7-2-1.2-3.2-1.6c-2.1-0.6-4.3-1.1-6.6-0.9C7,13,4.6,13.5,2.4,15c-0.9,0.6-1.6,1.4-1.6,2.5
		c0,0.7,0,1.5-0.1,2.1c0,0.5,0.1,0.7,0.7,0.7h9.2h9.3c0.5,0,0.6-0.1,0.6-0.6v-1.9C20.5,16.7,20.2,15.9,19.3,15.2z"/>
	<path class="st0" d="M15.6,5.4c0.1-2.9-2.1-5-5-5.1c-2.9,0-5.1,2.1-5,5c0,2.9,1.9,5.1,5,5.1S15.5,8.3,15.6,5.4z"/>
</g>
</svg>
