<?xml version="1.0" encoding="utf-8"?>
<!-- Generator: Adobe Illustrator 19.2.1, SVG Export Plug-In . SVG Version: 6.00 Build 0)  -->
<svg version="1.1" id="Capa_1" xmlns="http://www.w3.org/2000/svg" xmlns:xlink="http://www.w3.org/1999/xlink" x="0px" y="0px"
	 viewBox="0 0 22.6 21.5" style="enable-background:new 0 0 22.6 21.5;" xml:space="preserve">
<style type="text/css">
	.st0{fill:#FFFFFF;}
</style>
<g id="user_x5F_icon_2_">
	<path class="st0" d="M19.2,16.1c-1-0.7-2-1.2-3.2-1.6c-2.1-0.6-4.3-1.1-6.6-0.9c-2.5,0.2-5,0.7-7.1,2.2c-0.9,0.6-1.6,1.4-1.6,2.5
		c0,0.7,0,1.5-0.1,2.1c0,0.5,0.1,0.7,0.7,0.7h9.2h9.3c0.5,0,0.6-0.1,0.6-0.6v-1.9C20.4,17.6,20.1,16.7,19.2,16.1z"/>
	<path class="st0" d="M15.5,6.3c0.1-2.9-2.1-5-5-5.1c-2.9,0-5.1,2.1-5,5c0,2.9,1.9,5.1,5,5.1S15.3,9.2,15.5,6.3z"/>
</g>
<path class="st0" d="M22.3,1.8h-1.5V0.3c0-0.2-0.1-0.3-0.3-0.3c-0.2,0-0.3,0.1-0.3,0.3v1.5h-1.5c-0.2,0-0.3,0.1-0.3,0.3
	s0.1,0.3,0.3,0.3h1.5v1.5c0,0.2,0.1,0.3,0.3,0.3c0.2,0,0.3-0.1,0.3-0.3V2.4h1.5c0.2,0,0.3-0.1,0.3-0.3S22.4,1.8,22.3,1.8z"/>
</svg>
