<?xml version="1.0" encoding="utf-8"?>
<!-- Generator: Adobe Illustrator 19.2.1, SVG Export Plug-In . SVG Version: 6.00 Build 0)  -->
<svg version="1.1" id="Capa_1" xmlns="http://www.w3.org/2000/svg" xmlns:xlink="http://www.w3.org/1999/xlink" x="0px" y="0px"
	 viewBox="0 0 23.6 23.8" style="enable-background:new 0 0 23.6 23.8;" xml:space="preserve">
<style type="text/css">
	.st0{fill-rule:evenodd;clip-rule:evenodd;fill:#FFFFFF;}
</style>
<g>
	<path id="call_x5F_icon_3_" class="st0" d="M21.4,15.2c-0.5-0.1-1.4-0.2-2.2-0.3c-0.9-0.2-1.6-0.5-2.2-0.7
		c-0.5-0.2-0.5-0.1-0.9,0.1c-0.3,0.2-1.3,1.2-2.5,2.5c-1.2-0.7-2.4-1.5-3.5-2.5c-1.1-1-1.9-2-2.5-2.8c-0.6-0.8-1.2-1.8-1.2-1.8
		s2.1-2,2.4-2.6c0.3-0.6,0.2-0.9-0.1-1.7C8.6,4.7,8.4,3.2,8.2,2.7s-0.1-1-0.1-1.2S7.8,1,7.7,0.8C7.6,0.7,7.6,0.7,7.5,0.7
		c0,0-1.4,0-2.7,0.1H2.4C2.1,0.8,1.8,1,1.5,1.1C1.3,1.2,1,1.5,0.9,1.9C0.8,2.2,0.8,2.6,1,4c0.2,1.3,0.8,4,1.9,6.4
		c1.2,2.4,3.2,5.3,6.2,7.5c3,2.2,5.5,3.1,6.3,3.4c0.8,0.3,2.8,0.8,3.6,0.9c0.8,0.1,1.9,0.1,2.3,0.1c0.3,0,0.9-0.2,0.9-0.3
		c0-0.1,0.1-0.6,0.2-0.8c0.1-0.2,0.1-0.2,0.1-0.6v-2.9v-1.5c0-0.1-0.1-0.5-0.3-0.7C22,15.4,22,15.4,21.4,15.2z"/>
</g>
</svg>
